<svg width="214" height="214" viewBox="0 0 214 214" fill="none" xmlns="http://www.w3.org/2000/svg">
<rect width="214" height="214" rx="50" fill="url(#paint0_linear_20_2)"/>
<path d="M66.4375 70.0625C64.5208 70.0625 62.625 70.125 60.75 70.25V134.75C60.75 135.667 60.9167 136.438 61.25 137.062C61.7917 137.812 62.8333 138.375 64.375 138.75C65.9167 139.083 68.2917 139.25 71.5 139.25C74.2083 139.25 77.0417 138.583 80 137.25C82.9583 135.875 85.6667 133.792 88.125 131C90.5833 128.208 92.6042 124.688 94.1875 120.438C95.7708 116.146 96.5625 111.062 96.5625 105.188C96.5625 99.6458 95.8958 94.7083 94.5625 90.375C93.2708 86 91.3333 82.3125 88.75 79.3125C86.2083 76.3125 83.0625 74.0208 79.3125 72.4375C75.6042 70.8542 71.3125 70.0625 66.4375 70.0625ZM109.25 102.75C109.25 107.958 108.708 112.625 107.625 116.75C106.583 120.833 105.146 124.458 103.312 127.625C101.521 130.75 99.4167 133.417 97 135.625C94.625 137.792 92.1042 139.583 89.4375 141C86.7708 142.375 84.0417 143.396 81.25 144.062C78.4583 144.688 75.7708 145 73.1875 145H40V141.688C42.8333 141.104 45.0208 140.479 46.5625 139.812C48.1042 139.104 48.875 138.458 48.875 137.875V71.375C47.25 71.5833 45.6875 71.7917 44.1875 72C42.6875 72.2083 41.2917 72.4167 40 72.625L39.3125 68.125C41.2292 67.625 43.4583 67.1458 46 66.6875C48.5417 66.2292 51.2083 65.8333 54 65.5C56.7917 65.125 59.625 64.8542 62.5 64.6875C65.375 64.4792 68.0833 64.375 70.625 64.375C76.625 64.375 82 65.25 86.75 67C91.5417 68.7083 95.6042 71.2083 98.9375 74.5C102.271 77.7917 104.812 81.8125 106.562 86.5625C108.354 91.3125 109.25 96.7083 109.25 102.75ZM175.312 128.5C175.146 130.292 174.938 132.042 174.688 133.75C174.479 135.458 174.25 137.062 174 138.562C173.792 140.021 173.562 141.312 173.312 142.438C173.104 143.521 172.917 144.375 172.75 145H117.75V141.688C120.583 141.104 122.771 140.479 124.312 139.812C125.854 139.104 126.625 138.458 126.625 137.875V73.4375C126.625 72.9375 125.896 72.3125 124.438 71.5625C122.979 70.8125 120.75 70.1458 117.75 69.5625V66.25H147.438V69.5625C144.604 70.1458 142.396 70.7917 140.812 71.5C139.271 72.2083 138.5 72.8542 138.5 73.4375V134.125C138.5 134.875 138.667 135.542 139 136.125C139.375 136.667 140 137.146 140.875 137.562C141.75 137.938 142.938 138.229 144.438 138.438C145.938 138.646 147.833 138.75 150.125 138.75H158.438C160.354 138.75 161.958 138.604 163.25 138.312C164.583 138.021 165.75 137.458 166.75 136.625C167.75 135.792 168.646 134.625 169.438 133.125C170.271 131.625 171.125 129.646 172 127.188L175.312 128.5Z" fill="white"/>
<defs>
<linearGradient id="paint0_linear_20_2" x1="0" y1="0" x2="214" y2="214" gradientUnits="userSpaceOnUse">
<stop offset="0.235577" stop-color="#666CAF"/>
<stop offset="1" stop-color="#139BDA"/>
</linearGradient>
</defs>
</svg>
